<?xml version="1.0" standalone="no"?><!DOCTYPE svg PUBLIC "-//W3C//DTD SVG 1.1//EN" "http://www.w3.org/Graphics/SVG/1.1/DTD/svg11.dtd"><svg height="183" node-id="1" sillyvg="true" template-height="183" template-width="337" version="1.1" viewBox="0 0 337 183" width="337" xmlns="http://www.w3.org/2000/svg" xmlns:xlink="http://www.w3.org/1999/xlink"><defs node-id="37"></defs><g node-id="108"><path d="M 248.47 88.43 C 248.47 136.01 209.90 174.58 162.32 174.58 C 114.74 174.58 76.17 136.01 76.17 88.43 C 76.17 40.85 114.74 2.28 162.32 2.28 C 209.90 2.28 248.47 40.85 248.47 88.43 Z" fill="#5880e7" fill-rule="nonzero" group-id="1" node-id="41" stroke="none" target-height="172.3" target-width="172.29999" target-x="76.170006" target-y="2.2799988"></path><path d="M 162.32 175.09 C 114.46 175.08 75.67 136.28 75.68 88.42 C 75.69 40.56 114.49 1.77 162.35 1.77 C 210.21 1.77 249.00 40.57 249.00 88.43 C 248.94 136.28 210.17 175.05 162.32 175.09 Z M 162.32 2.78 C 115.01 2.79 76.67 41.15 76.68 88.46 C 76.69 135.76 115.05 174.11 162.35 174.10 C 209.66 174.09 248.01 135.74 248.00 88.43 C 247.94 41.14 209.61 2.82 162.32 2.78 Z" fill="#000000" fill-rule="nonzero" group-id="1" node-id="43" stroke="none" target-height="173.32367" target-width="173.32736" target-x="75.67264" target-y="1.7663217"></path><path d="M 152.22 1.47 L 157.51 7.63 L 156.67 8.20 C 148.90 13.45 139.51 15.78 130.19 14.76 L 130.19 14.76 L 130.79 7.02 Z" fill="#5880e7" fill-rule="nonzero" group-id="1" node-id="45" stroke="none" target-height="14.306904" target-width="27.319992" target-x="130.19" target-y="1.47"></path><path d="M 134.47 15.50 C 133.02 15.50 131.57 15.42 130.13 15.26 L 129.65 15.26 L 130.32 6.68 L 152.39 0.91 L 158.25 7.73 L 156.95 8.61 C 150.31 13.10 142.48 15.50 134.47 15.50 Z M 130.72 14.32 C 139.78 15.19 148.85 12.88 156.39 7.78 L 156.77 7.53 L 152.00 2.00 L 131.26 7.42 Z" fill="#000000" fill-rule="nonzero" group-id="1" node-id="47" stroke="none" target-height="14.59" target-width="28.600006" target-x="129.65" target-y="0.91"></path><g node-id="109"><path d="M 152.51 1.58 C 152.68 2.25 151.71 3.18 149.82 4.17 C 147.93 5.17 145.27 6.14 142.42 6.87 C 139.57 7.60 136.77 8.04 134.63 8.09 C 132.50 8.13 131.20 7.78 131.03 7.12 C 130.86 6.45 131.82 5.51 133.72 4.52 C 135.61 3.53 138.27 2.56 141.12 1.83 C 143.97 1.09 146.77 0.65 148.90 0.61 C 151.04 0.56 152.33 0.91 152.51 1.58 Z" fill="#5880e7" fill-rule="nonzero" group-id="1,2" node-id="51" stroke="none" target-height="7.572567" target-width="21.820587" target-x="130.85721" target-y="0.56121445"></path></g><path d="M 134.00 8.49 C 131.77 8.49 130.53 8.04 130.30 7.15 C 130.07 6.26 131.03 5.15 133.22 3.99 C 135.61 2.80 138.12 1.88 140.71 1.24 C 143.29 0.53 145.94 0.12 148.61 0.00 C 151.10 -0.06 152.46 0.39 152.70 1.34 C 153.23 3.40 147.70 5.84 142.28 7.24 C 139.71 7.94 137.06 8.36 134.40 8.48 Z M 149.00 1.00 L 148.63 1.00 C 146.05 1.13 143.49 1.53 141.00 2.21 C 138.49 2.82 136.05 3.71 133.73 4.87 C 131.60 5.99 131.25 6.71 131.30 6.87 C 131.35 7.03 132.01 7.52 134.41 7.46 C 136.98 7.35 139.52 6.96 142.00 6.29 C 148.62 4.57 151.88 2.29 151.70 1.60 C 151.69 1.42 151.10 1.00 149.00 1.00 Z" fill="#000000" fill-rule="nonzero" group-id="1" node-id="54" stroke="none" target-height="8.55" target-width="23.159988" target-x="130.07" target-y="-0.06"></path><path d="M 213.70 160.00 L 206.36 156.53 L 206.90 155.67 C 211.86 147.71 219.48 141.76 228.41 138.89 L 228.41 138.89 L 231.02 146.21 Z" fill="#5880e7" fill-rule="nonzero" group-id="1" node-id="56" stroke="none" target-height="21.11" target-width="24.660004" target-x="206.36" target-y="138.89"></path><path d="M 213.77 160.62 L 205.64 156.79 L 206.48 155.45 C 211.50 147.38 219.22 141.36 228.26 138.45 L 228.72 138.31 L 231.60 146.41 Z M 207.08 156.36 L 213.64 159.46 L 230.43 146.08 L 228.11 139.55 C 219.48 142.45 212.13 148.27 207.32 156.00 Z" fill="#000000" fill-rule="nonzero" group-id="1" node-id="58" stroke="none" target-height="22.309998" target-width="25.959991" target-x="205.64001" target-y="138.31"></path><g node-id="110"><path d="M 231.01 146.23 C 231.44 146.77 230.94 148.02 229.62 149.69 C 228.30 151.37 226.27 153.33 223.98 155.16 C 221.68 156.99 219.31 158.53 217.38 159.45 C 215.45 160.36 214.13 160.57 213.70 160.03 C 213.27 159.49 213.77 158.25 215.09 156.57 C 216.41 154.90 218.44 152.93 220.74 151.10 C 223.03 149.27 225.40 147.73 227.33 146.82 C 229.26 145.90 230.58 145.69 231.01 146.23 Z" fill="#5880e7" fill-rule="nonzero" group-id="1,3" node-id="62" stroke="none" target-height="14.876129" target-width="18.174377" target-x="213.26915" target-y="145.69315"></path></g><path d="M 214.52 160.83 C 214.06 160.87 213.62 160.69 213.31 160.35 L 213.31 160.35 C 211.99 158.68 216.07 154.19 220.43 150.72 C 224.79 147.25 230.08 144.27 231.43 145.93 C 232.78 147.59 228.67 152.10 224.31 155.57 C 220.79 158.36 216.69 160.83 214.52 160.83 Z M 214.09 159.73 C 214.54 160.29 218.32 159.05 223.67 154.79 C 229.02 150.53 231.07 147.11 230.67 146.56 C 230.27 146.01 226.44 147.23 221.09 151.50 C 215.74 155.77 213.69 159.17 214.09 159.73 Z" fill="#000000" fill-rule="nonzero" group-id="1" node-id="65" stroke="none" target-height="16.59703" target-width="20.790009" target-x="211.98999" target-y="144.27"></path><path d="M 103.16 155.81 L 103.26 147.70 L 104.26 147.83 C 113.57 149.02 122.15 153.49 128.47 160.42 L 128.47 160.42 L 122.89 165.83 Z" fill="#5880e7" fill-rule="nonzero" group-id="1" node-id="67" stroke="none" target-height="18.130005" target-width="25.309998" target-x="103.16" target-y="147.7"></path><path d="M 123.00 166.43 L 102.66 156.12 L 102.77 147.12 L 104.33 147.32 C 113.75 148.54 122.44 153.05 128.84 160.07 L 129.17 160.43 Z M 103.66 155.51 L 122.81 165.22 L 127.81 160.40 C 121.59 153.75 113.26 149.48 104.23 148.32 L 103.78 148.26 Z" fill="#000000" fill-rule="nonzero" group-id="1" node-id="69" stroke="none" target-height="19.309998" target-width="26.509995" target-x="102.66" target-y="147.12"></path><g node-id="111"><path d="M 114.21 158.49 C 119.66 161.25 123.56 164.53 122.91 165.81 C 122.26 167.09 117.31 165.89 111.86 163.13 C 106.40 160.36 102.51 157.08 103.16 155.80 C 103.81 154.52 108.76 155.72 114.21 158.49 Z" fill="#5880e7" fill-rule="nonzero" group-id="1,4" node-id="73" stroke="none" target-height="12.574829" target-width="21.04506" target-x="102.510155" target-y="154.5193"></path></g><path d="M 121.45 166.84 C 119.12 166.84 115.17 165.38 111.63 163.59 C 109.24 162.41 106.98 160.97 104.90 159.30 C 103.01 157.71 102.27 156.46 102.72 155.59 L 102.72 155.59 C 103.72 153.69 109.47 155.53 114.44 158.05 C 119.41 160.57 124.31 164.15 123.35 166.05 C 123.07 166.60 122.39 166.84 121.45 166.84 Z M 103.61 156.00 C 103.52 156.17 103.70 157.00 105.54 158.50 C 107.56 160.12 109.75 161.52 112.08 162.66 C 118.18 165.75 122.08 166.20 122.46 165.56 C 122.84 164.92 120.08 162.00 113.98 158.90 C 107.88 155.80 103.98 155.36 103.61 156.00 Z" fill="#000000" fill-rule="nonzero" group-id="1" node-id="76" stroke="none" target-height="13.149994" target-width="22.04" target-x="102.27" target-y="153.69"></path><path d="M 128.09 79.16 C 128.09 86.20 122.38 91.91 115.34 91.91 C 108.30 91.91 102.59 86.20 102.59 79.16 C 102.59 72.12 108.30 66.41 115.34 66.41 C 122.38 66.41 128.09 72.12 128.09 79.16 Z" fill="#5880e7" fill-rule="nonzero" group-id="1" node-id="78" stroke="none" target-height="25.5" target-width="25.5" target-x="102.59" target-y="66.41"></path><path d="M 115.34 92.41 C 109.98 92.41 105.14 89.19 103.09 84.24 C 101.04 79.28 102.17 73.58 105.96 69.79 C 109.75 66.00 115.45 64.87 120.41 66.92 C 125.36 68.97 128.58 73.81 128.58 79.17 C 128.57 86.48 122.65 92.40 115.34 92.41 Z M 115.34 66.92 C 110.38 66.92 105.91 69.90 104.02 74.48 C 102.12 79.05 103.16 84.32 106.66 87.83 C 110.17 91.33 115.44 92.38 120.02 90.49 C 124.59 88.59 127.58 84.13 127.58 79.17 C 127.57 72.41 122.10 66.93 115.34 66.92 Z" fill="#000000" fill-rule="nonzero" group-id="1" node-id="80" stroke="none" target-height="27.546944" target-width="27.546951" target-x="101.037094" target-y="64.8671"></path><path d="M 123.12 77.31 C 123.12 83.32 118.24 88.20 112.23 88.20 C 106.22 88.20 101.34 83.32 101.34 77.31 C 101.34 71.30 106.22 66.42 112.23 66.42 C 118.24 66.42 123.12 71.30 123.12 77.31 Z" fill="#5880e7" fill-rule="nonzero" group-id="1" node-id="82" stroke="none" target-height="21.779999" target-width="21.779999" target-x="101.340004" target-y="66.42"></path><path d="M 112.23 88.70 C 107.62 88.70 103.47 85.93 101.70 81.68 C 99.93 77.42 100.91 72.52 104.16 69.26 C 107.42 66.00 112.32 65.02 116.58 66.79 C 120.83 68.55 123.61 72.70 123.61 77.31 C 123.60 83.59 118.51 88.69 112.23 88.70 Z M 112.23 66.92 C 106.49 66.92 101.84 71.57 101.84 77.31 C 101.84 83.05 106.49 87.70 112.23 87.70 C 117.97 87.70 122.62 83.05 122.62 77.31 C 122.61 71.58 117.96 66.93 112.23 66.92 Z" fill="#000000" fill-rule="nonzero" group-id="1" node-id="84" stroke="none" target-height="23.680359" target-width="23.676224" target-x="99.93378" target-y="65.02369"></path><path d="M 177.69 135.22 C 177.69 142.26 171.98 147.97 164.94 147.97 C 157.90 147.97 152.19 142.26 152.19 135.22 C 152.19 128.18 157.90 122.47 164.94 122.47 C 171.98 122.47 177.69 128.18 177.69 135.22 Z" fill="#5880e7" fill-rule="nonzero" group-id="1" node-id="86" stroke="none" target-height="25.5" target-width="25.5" target-x="152.19" target-y="122.47"></path><path d="M 164.94 148.46 C 157.63 148.46 151.70 142.53 151.70 135.22 C 151.70 127.91 157.63 121.98 164.94 121.98 C 172.25 121.98 178.18 127.91 178.18 135.22 C 178.17 142.53 172.25 148.45 164.94 148.46 Z M 164.94 122.97 C 159.98 122.97 155.51 125.95 153.62 130.53 C 151.72 135.10 152.76 140.37 156.26 143.88 C 159.77 147.38 165.04 148.43 169.62 146.54 C 174.19 144.64 177.18 140.18 177.18 135.22 C 177.16 128.47 171.69 123.01 164.94 123.00 Z" fill="#000000" fill-rule="nonzero" group-id="1" node-id="88" stroke="none" target-height="26.480003" target-width="26.479996" target-x="151.7" target-y="121.98"></path><path d="M 175.83 137.07 C 175.83 143.08 170.95 147.96 164.94 147.96 C 158.93 147.96 154.05 143.08 154.05 137.07 C 154.05 131.06 158.93 126.18 164.94 126.18 C 170.95 126.18 175.83 131.06 175.83 137.07 Z" fill="#5880e7" fill-rule="nonzero" group-id="1" node-id="90" stroke="none" target-height="21.780006" target-width="21.779999" target-x="154.05" target-y="126.18"></path><path d="M 164.94 148.46 C 160.33 148.46 156.18 145.69 154.41 141.44 C 152.64 137.18 153.62 132.28 156.87 129.02 C 160.13 125.76 165.03 124.78 169.29 126.55 C 173.54 128.31 176.32 132.46 176.32 137.07 C 176.31 143.35 171.22 148.45 164.94 148.46 Z M 164.94 126.68 C 160.73 126.68 156.94 129.21 155.32 133.10 C 153.71 136.98 154.60 141.46 157.58 144.43 C 160.55 147.41 165.03 148.30 168.91 146.69 C 172.80 145.07 175.33 141.28 175.33 137.07 C 175.32 131.34 170.67 126.69 164.94 126.68 Z" fill="#000000" fill-rule="nonzero" group-id="1" node-id="92" stroke="none" target-height="23.680359" target-width="23.676224" target-x="152.64378" target-y="124.78369"></path><path d="M 225.37 46.92 C 225.37 54.01 219.62 59.76 212.53 59.76 C 205.44 59.76 199.69 54.01 199.69 46.92 C 199.69 39.83 205.44 34.08 212.53 34.08 C 219.62 34.08 225.37 39.83 225.37 46.92 Z" fill="#5880e7" fill-rule="nonzero" group-id="1" node-id="94" stroke="none" target-height="25.68" target-width="25.680008" target-x="199.68999" target-y="34.079998"></path><path d="M 212.53 60.26 C 205.16 60.26 199.19 54.29 199.19 46.92 C 199.19 39.55 205.16 33.58 212.53 33.58 C 219.90 33.58 225.87 39.55 225.87 46.92 C 225.86 54.29 219.90 60.25 212.53 60.26 Z M 212.53 34.58 C 205.71 34.58 200.19 40.10 200.19 46.92 C 200.19 53.74 205.71 59.26 212.53 59.26 C 219.35 59.26 224.87 53.74 224.87 46.92 C 224.86 40.11 219.34 34.59 212.53 34.58 Z" fill="#000000" fill-rule="nonzero" group-id="1" node-id="96" stroke="none" target-height="26.679996" target-width="26.679993" target-x="199.19" target-y="33.58"></path><path d="M 226.43 46.92 C 226.43 52.98 221.52 57.89 215.46 57.89 C 209.40 57.89 204.49 52.98 204.49 46.92 C 204.49 40.86 209.40 35.95 215.46 35.95 C 221.52 35.95 226.43 40.86 226.43 46.92 Z" fill="#5880e7" fill-rule="nonzero" group-id="1" node-id="98" stroke="none" target-height="21.940006" target-width="21.939987" target-x="204.49002" target-y="35.949997"></path><path d="M 215.46 58.39 C 210.82 58.39 206.63 55.60 204.86 51.32 C 203.08 47.03 204.06 42.10 207.34 38.81 C 210.62 35.53 215.55 34.55 219.84 36.32 C 224.12 38.10 226.92 42.28 226.92 46.92 C 226.91 53.25 221.79 58.38 215.46 58.39 Z M 215.46 36.45 C 209.68 36.45 204.99 41.14 204.99 46.92 C 204.99 52.70 209.68 57.39 215.46 57.39 C 221.24 57.39 225.93 52.70 225.93 46.92 C 225.92 41.14 221.24 36.46 215.46 36.45 Z" fill="#000000" fill-rule="nonzero" group-id="1" node-id="100" stroke="none" target-height="23.84665" target-width="23.842514" target-x="203.07748" target-y="34.547398"></path><path d="M 336.26 23.43 C 331.35 12.73 290.13 20.43 234.00 40.64 C 234.58 41.50 235.14 42.38 235.68 43.26 C 252.09 39.26 262.93 38.85 264.82 42.97 C 266.71 47.09 259.21 55.19 245.26 65.13 C 228.32 77.19 201.90 92.04 171.26 106.13 C 139.85 120.54 110.70 131.07 90.43 135.89 C 74.63 139.65 64.22 139.95 62.37 135.89 C 60.52 131.83 67.42 124.30 80.37 114.89 C 80.04 113.89 79.73 112.80 79.43 111.74 C 28.22 140.82 -3.91 166.70 1.00 177.31 C 6.12 188.48 50.80 179.61 110.70 157.38 C 132.61 149.26 156.53 139.38 181.32 127.98 C 205.56 116.86 228.18 105.44 248.32 94.37 C 304.94 63.15 341.43 34.69 336.26 23.43 Z" fill="#ffc013" fill-rule="nonzero" group-id="1" node-id="102" stroke="none" target-height="175.75" target-width="345.34" target-x="-3.91" target-y="12.73"></path><path d="M 15.21 182.63 C 7.14 182.63 2.08 180.95 0.50 177.52 C -4.33 166.99 25.80 141.62 79.14 111.31 L 79.69 110.99 L 79.86 111.61 C 80.16 112.61 80.46 113.70 80.80 114.73 L 80.91 115.08 L 80.62 115.29 C 67.62 124.71 61.18 132.14 62.81 135.68 C 64.44 139.22 74.47 139.15 90.29 135.39 C 111.35 130.39 140.78 119.54 171.03 105.65 C 200.46 92.15 227.41 77.23 244.97 64.72 C 258.97 54.72 266.07 46.88 264.37 43.18 C 262.67 39.48 252.28 39.72 235.80 43.74 L 235.45 43.83 L 235.26 43.52 C 234.71 42.64 234.16 41.77 233.59 40.92 L 233.23 40.39 L 233.83 40.17 C 292.41 19.08 331.83 12.59 336.71 23.17 L 336.71 23.17 C 341.91 34.50 308.10 61.93 248.49 94.76 C 227.66 106.23 205.12 117.54 181.49 128.39 C 157.31 139.48 133.49 149.39 110.83 157.80 C 67.20 174.00 33.49 182.63 15.21 182.63 Z M 79.08 112.49 C 27.37 141.93 -3.10 167.27 1.41 177.10 C 6.24 187.63 49.06 179.71 110.49 156.92 C 133.17 148.50 156.92 138.61 181.07 127.53 C 204.68 116.69 227.20 105.39 248.01 93.94 C 306.23 61.87 340.69 34.28 335.81 23.64 L 335.81 23.64 C 331.24 13.70 291.61 20.48 234.81 40.89 C 235.20 41.49 235.58 42.09 235.95 42.69 C 248.08 39.75 262.87 37.43 265.32 42.76 C 267.77 48.09 255.96 58.14 245.59 65.53 C 227.98 78.08 200.97 93.03 171.49 106.53 C 141.18 120.44 111.68 131.30 90.57 136.32 C 78.84 139.12 64.36 141.32 61.94 136.07 C 59.52 130.82 70.26 121.63 79.78 114.67 C 79.51 114.00 79.29 113.23 79.08 112.49 Z" fill="#000000" fill-rule="nonzero" group-id="1" node-id="104" stroke="none" target-height="175.04001" target-width="346.24" target-x="-4.33" target-y="12.590001"></path><path d="M 15.00 171.72 C 14.31 171.72 13.68 171.72 13.12 171.67 C 17.55 166.08 28.83 155.57 52.74 140.00 L 52.85 140.24 C 55.58 146.24 61.63 149.24 70.85 149.24 C 76.45 149.24 83.85 148.16 92.85 146.02 C 114.57 140.85 144.74 129.76 175.62 115.59 C 205.62 101.82 233.23 86.52 251.33 73.59 C 265.88 63.22 279.99 50.96 274.33 38.59 C 274.33 38.51 274.26 38.44 274.23 38.37 C 295.00 32.34 311.75 29.00 322.18 29.00 C 322.90 29.00 323.55 29.00 324.13 29.00 C 316.87 38.28 292.13 58.22 243.22 85.18 C 222.64 96.51 200.34 107.70 176.94 118.45 C 153.01 129.45 129.50 139.22 107.04 147.55 C 66.37 162.64 31.98 171.65 15.04 171.65 Z" fill="#ffa515" fill-rule="nonzero" group-id="1" node-id="106" stroke="none" target-height="142.72" target-width="311.01" target-x="13.12" target-y="29"></path></g></svg>