<?xml version="1.0" standalone="no"?><!DOCTYPE svg PUBLIC "-//W3C//DTD SVG 1.1//EN" "http://www.w3.org/Graphics/SVG/1.1/DTD/svg11.dtd"><svg height="600" node-id="1" sillyvg="true" template-height="600" template-width="600" version="1.1" viewBox="0 0 600 600" width="600" xmlns="http://www.w3.org/2000/svg" xmlns:xlink="http://www.w3.org/1999/xlink"><defs node-id="18"></defs><path d="M 110.81 392.45 C 99.58 368.88 96.47 343.54 95.29 317.94 C 94.95 310.66 93.59 305.09 87.50 300.76 C 73.69 290.94 70.50 278.22 76.79 262.43 C 81.15 251.43 84.40 240.10 88.15 228.91 C 98.72 227.98 101.15 236.38 103.67 243.50 C 107.54 254.28 107.67 265.88 109.56 279.67 C 120.36 250.82 130.84 224.34 132.70 195.40 C 154.88 158.93 186.53 133.11 224.35 114.40 C 231.29 110.96 236.51 107.47 239.00 99.18 C 242.46 87.67 249.91 79.51 263.55 78.94 C 269.73 78.68 275.82 76.33 281.95 74.94 C 283.46 76.20 284.76 77.70 285.79 79.37 C 294.85 96.13 294.88 96.25 312.87 92.43 C 324.87 89.88 336.79 88.51 348.60 93.27 C 397.76 105.46 439.71 129.27 471.54 169.44 C 491.07 195.12 483.79 221.58 473.76 248.09 C 472.30 252.20 470.21 256.05 467.55 259.51 C 450.95 279.94 443.12 305.26 429.46 327.32 C 426.85 331.52 426.76 336.26 426.46 341.03 C 424.29 379.74 405.88 401.24 368.28 408.84 C 364.40 409.61 360.82 411.50 358.00 414.27 C 339.19 432.06 316.69 443.04 292.00 450.01 C 284.32 452.18 277.25 455.23 271.33 460.93 C 264.58 467.44 257.39 468.58 251.33 459.93 C 248.44 455.83 246.09 456.54 242.73 459.16 C 237.62 463.16 231.64 462.63 225.73 461.45 C 186.73 453.69 153.25 435.24 123.73 409.12 C 118.40 404.43 115.59 397.65 110.81 392.45 Z" fill="#d71b60" fill-rule="nonzero" node-id="20" stroke="none" target-height="393.63998" target-width="420.57" target-x="70.5" target-y="74.94"></path><path d="M 110.81 392.45 C 122.08 401.58 133.31 410.76 144.63 419.84 C 169.50 439.84 198.29 451.04 229.09 457.84 C 235.34 459.21 240.93 459.43 243.09 451.53 C 243.72 449.28 245.31 447.17 248.19 447.45 C 251.48 447.77 252.39 450.34 253.47 453.04 C 258.59 465.85 260.56 466.25 269.20 456.38 C 273.84 451.09 279.89 448.45 286.47 446.74 C 312.83 439.88 337.15 429.25 356.35 409.08 C 359.15 406.14 362.35 403.73 366.64 404.08 C 394.93 406.59 420.69 374.98 421.55 346.63 C 421.90 335.24 426.89 326.37 430.81 316.25 C 440.81 290.47 458.73 269.70 470.08 245.18 C 481.52 220.44 482.13 194.88 471.49 169.42 C 490.30 185.99 501.34 207.77 511.33 230.06 C 544.84 304.86 527.70 393.48 468.89 450.50 C 463.30 456.07 457.26 461.17 450.84 465.75 C 442.66 471.42 437.43 480.07 430.59 486.18 C 412.43 502.43 390.09 512.64 365.83 517.67 C 339.96 503.78 313.44 517.89 287.16 515.94 C 207.14 510.00 148.79 472.70 113.39 400.28 C 112.19 397.84 111.65 395.07 110.81 392.45 Z" fill="#ac1357" fill-rule="nonzero" node-id="22" stroke="none" target-height="348.47003" target-width="434.03003" target-x="110.81" target-y="169.42"></path><path d="M 132.70 195.40 C 136.90 199.23 137.94 203.75 136.52 209.30 C 130.46 232.95 124.13 256.50 114.62 279.06 C 113.85 280.87 112.95 282.63 111.92 284.31 C 110.69 286.31 109.11 288.58 106.46 287.92 C 103.36 287.15 104.14 284.06 104.34 281.92 C 105.28 272.37 102.73 263.14 101.82 253.78 C 100.82 243.72 97.49 234.54 88.15 228.88 C 92.62 213.82 100.79 203.34 118.29 203.64 C 124.46 203.77 129.27 200.56 132.70 195.40 Z" fill="#ad1357" fill-rule="nonzero" node-id="24" stroke="none" target-height="93.17999" target-width="49.789993" target-x="88.15001" target-y="195.4"></path><path d="M 348.60 93.27 C 334.32 93.03 320.34 95.27 306.52 98.62 C 290.34 102.56 287.83 101.30 283.12 85.46 C 282.12 82.13 282.31 78.46 281.95 74.94 C 286.83 73.62 291.84 72.68 296.55 70.94 C 312.61 64.94 325.39 68.37 334.80 83.13 C 338.05 88.19 343.11 91.08 348.60 93.27 Z" fill="#ac1357" fill-rule="nonzero" node-id="26" stroke="none" target-height="37.619995" target-width="66.649994" target-x="281.95" target-y="64.94"></path><path d="M 192.91 313.00 C 178.05 285.28 186.44 257.29 212.21 243.36 C 224.55 236.69 237.13 231.80 251.52 233.36 C 262.98 234.61 271.74 239.26 275.60 250.89 C 277.88 257.78 278.60 260.89 268.28 260.63 C 244.44 260.13 221.71 264.17 204.04 283.63 C 196.31 292.07 198.39 302.87 192.91 313.00 Z" fill="#ad1357" fill-rule="nonzero" node-id="28" stroke="none" target-height="81.19998" target-width="100.55" target-x="178.05" target-y="231.80002"></path><path d="M 371.14 134.30 C 360.34 141.41 352.68 150.57 341.28 155.76 C 329.57 160.99 320.78 171.14 317.28 183.48 C 316.41 186.48 315.38 190.18 311.45 189.86 C 307.71 189.55 306.94 185.86 306.21 182.81 C 299.97 156.56 324.76 127.02 351.44 129.25 C 357.77 129.78 364.39 130.59 371.14 134.30 Z" fill="#ad1357" fill-rule="nonzero" node-id="30" stroke="none" target-height="63.159973" target-width="71.170044" target-x="299.97" target-y="127.020004"></path><path d="M 332.00 290.91 C 332.00 287.99 331.66 286.03 332.06 284.23 C 334.30 273.99 360.99 249.23 371.45 247.86 C 376.55 247.19 382.61 246.86 385.03 252.21 C 387.45 257.56 381.51 260.00 378.36 263.21 C 365.83 276.10 349.92 283.44 332.00 290.91 Z" fill="#ad1357" fill-rule="nonzero" node-id="32" stroke="none" target-height="44.050003" target-width="55.79001" target-x="331.66" target-y="246.86"></path><path d="M 336.85 358.91 C 337.71 362.58 335.59 363.47 332.30 363.76 C 318.86 364.93 307.80 371.91 296.63 378.60 C 294.38 379.94 291.94 382.68 289.30 380.35 C 286.66 378.02 288.96 375.08 289.77 372.64 C 294.54 358.39 311.22 346.48 324.77 347.06 C 332.51 347.39 336.28 351.28 336.85 358.91 Z" fill="#ad1357" fill-rule="nonzero" node-id="34" stroke="none" target-height="36.19998" target-width="51.049988" target-x="286.66" target-y="346.48"></path><path d="M 161.34 356.63 C 161.93 350.79 165.63 347.00 172.76 347.31 C 180.15 347.64 187.69 356.79 187.26 364.58 C 186.91 370.92 183.98 375.10 177.26 375.26 C 169.52 375.46 161.08 366.00 161.34 356.63 Z" fill="#ad1357" fill-rule="nonzero" node-id="36" stroke="none" target-height="28.459991" target-width="26.61" target-x="161.08" target-y="347"></path><path d="M 204.18 179.94 C 205.44 174.33 208.13 169.14 212.00 164.89 C 216.75 159.60 222.86 157.32 228.37 162.56 C 234.77 168.63 226.04 170.65 223.76 174.25 C 221.21 178.14 218.35 181.82 215.20 185.25 C 213.20 187.53 212.92 193.09 207.89 190.60 C 204.49 189.00 203.71 185.24 204.18 179.94 Z" fill="#ae1357" fill-rule="nonzero" node-id="38" stroke="none" target-height="35.769974" target-width="31.059998" target-x="203.71" target-y="157.32"></path><path d="M 421.62 210.85 C 422.75 203.18 423.26 195.96 432.36 195.60 C 438.50 195.36 445.07 199.60 443.89 204.60 C 442.17 211.81 434.54 217.53 428.05 220.15 C 422.55 222.35 423.28 214.00 421.62 210.85 Z" fill="#ad1357" fill-rule="nonzero" node-id="40" stroke="none" target-height="26.98999" target-width="23.450012" target-x="421.62" target-y="195.36002"></path><path d="M 495.37 342.49 C 495.37 354.29 488.18 364.02 479.71 363.67 C 472.85 363.38 471.65 358.89 471.60 353.22 C 471.51 342.16 478.67 331.09 486.35 330.70 C 492.94 330.36 495.36 333.53 495.37 342.49 Z" fill="#d61b5f" fill-rule="nonzero" node-id="42" stroke="none" target-height="33.660004" target-width="23.859985" target-x="471.51" target-y="330.36"></path></svg>