<?xml version="1.0" standalone="no"?><!DOCTYPE svg PUBLIC "-//W3C//DTD SVG 1.1//EN" "http://www.w3.org/Graphics/SVG/1.1/DTD/svg11.dtd"><svg height="400" node-id="1" sillyvg="true" template-height="400" template-width="400" version="1.1" viewBox="0 0 400 400" width="400" xmlns="http://www.w3.org/2000/svg" xmlns:xlink="http://www.w3.org/1999/xlink"><defs node-id="37"><linearGradient gradientUnits="objectBoundingBox" id="未命名的渐变_13" node-id="5" spreadMethod="pad" x1="835.21" x2="968.33" y1="-1393.38" y2="-1249.4"><stop offset="0" stop-color="#eacb74"></stop><stop offset="1" stop-color="#ffab54"></stop></linearGradient><linearGradient gradientUnits="objectBoundingBox" id="未命名的渐变_74" node-id="8" spreadMethod="pad" x1="835.21" x2="968.33" y1="-1393.38" y2="-1249.4"><stop offset="0" stop-color="#eabd74"></stop><stop offset="1" stop-color="#e5994c"></stop></linearGradient><linearGradient gradientUnits="objectBoundingBox" id="未命名的渐变_88" node-id="11" spreadMethod="pad" x1="67.96" x2="348.75" y1="199.96" y2="199.96"><stop offset="0" stop-color="#e26954"></stop><stop offset="0.99" stop-color="#e24f3f"></stop></linearGradient></defs><g node-id="109"><path d="M 297.37 203.56 C 297.37 254.51 256.06 295.82 205.11 295.82 C 154.16 295.82 112.85 254.51 112.85 203.56 C 112.85 152.61 154.16 111.30 205.11 111.30 C 256.06 111.30 297.37 152.61 297.37 203.56 Z" fill="url(#未命名的渐变_13)" fill-rule="nonzero" group-id="1" node-id="61" stroke="none" target-height="184.52002" target-width="184.52" target-x="112.84999" target-y="111.299995"></path><g node-id="110"><path d="M 251.48 123.80 C 244.43 119.69 236.87 116.54 229.00 114.42 C 238.00 121.89 245.24 131.24 250.20 141.83 C 254.68 151.68 256.51 162.83 253.95 173.42 C 251.76 182.48 246.19 190.89 237.40 194.61 C 235.11 195.57 232.70 196.21 230.24 196.52 C 227.82 196.76 225.38 196.66 222.98 196.23 C 217.48 195.39 212.14 193.75 206.65 192.83 C 204.01 192.33 201.33 192.15 198.65 192.28 C 196.13 192.45 193.57 193.01 191.65 194.79 C 188.43 197.79 188.82 202.43 187.27 206.24 C 185.79 209.83 182.14 212.03 178.27 211.66 C 173.81 211.31 169.64 209.06 165.64 207.24 C 163.65 206.27 161.59 205.46 159.47 204.83 C 157.19 204.26 154.81 204.29 152.55 204.92 C 147.34 206.22 142.79 209.46 137.26 209.38 C 128.64 209.24 120.84 205.32 114.66 199.47 C 114.10 198.93 113.55 198.38 113.02 197.83 C 110.18 243.20 140.83 283.88 185.22 293.68 C 229.61 303.47 274.53 279.47 291.05 237.12 C 307.57 194.76 290.78 146.68 251.48 123.83 Z" fill="url(#未命名的渐变_74)" fill-opacity="0.3" fill-rule="nonzero" group-id="1,2" node-id="65" stroke="none" target-height="189.05388" target-width="197.39015" target-x="110.18419" target-y="114.42"></path></g><g node-id="111"><path d="M 251.59 123.86 C 255.09 128.50 258.59 133.12 262.03 137.86 C 266.29 143.71 270.40 149.68 274.10 155.86 C 277.82 161.78 280.41 168.33 281.74 175.19 C 282.91 181.84 282.34 188.69 280.06 195.05 C 278.86 198.25 277.33 201.31 275.50 204.20 C 273.80 206.96 271.78 209.52 269.50 211.82 C 267.36 214.13 264.79 216.01 261.93 217.34 C 258.61 218.70 255.13 218.34 251.63 218.34 C 248.65 218.22 245.70 218.94 243.10 220.41 C 241.37 221.52 239.91 223.00 238.84 224.75 C 234.55 231.47 233.99 241.59 226.19 245.58 C 215.90 250.85 205.74 241.46 196.13 238.89 C 191.18 237.39 185.80 238.39 181.72 241.58 C 178.19 244.45 175.84 248.44 172.72 251.74 C 169.57 255.31 165.22 257.60 160.50 258.18 C 155.31 258.68 150.13 256.84 145.64 254.38 C 140.75 251.63 136.28 248.19 132.38 244.15 C 130.60 242.37 128.93 240.48 127.38 238.49 C 125.57 236.07 123.95 233.51 122.54 230.83 C 118.39 222.95 115.15 214.62 112.88 206.00 C 114.06 250.40 146.71 287.65 190.57 294.65 C 234.43 301.65 277.05 276.41 291.99 234.59 C 306.93 192.76 289.95 146.23 251.59 123.85 Z" fill="#e26954" fill-opacity="0.7" fill-rule="nonzero" group-id="1,3" node-id="70" stroke="none" target-height="177.80153" target-width="194.05148" target-x="112.88" target-y="123.84999"></path></g><path d="M 128.14 162.81 C 149.42 126.20 196.81 108.64 236.14 116.65 C 235.75 115.65 230.87 115.38 229.68 114.42 C 187.43 104.23 146.41 121.00 125.37 157.19 C 118.34 169.24 114.15 182.74 113.11 196.65 C 113.99 197.59 114.90 198.48 115.84 199.34 C 117.42 186.46 121.61 174.03 128.14 162.81 Z" fill="#ffda99" fill-rule="nonzero" group-id="1" node-id="73" stroke="none" target-height="95.10999" target-width="123.02999" target-x="113.10999" target-y="104.23"></path><g node-id="112"><path d="M 152.00 154.30 C 149.35 157.78 148.34 162.20 146.40 166.12 C 144.46 170.04 141.75 173.29 140.22 177.25 C 138.69 181.21 138.76 186.25 141.95 189.10 C 146.65 193.25 154.11 189.85 160.21 191.30 C 162.69 191.89 164.92 193.30 167.43 193.78 C 172.43 194.78 177.43 191.78 180.62 187.78 C 185.32 181.86 186.71 173.97 184.32 166.80 C 181.92 159.63 176.07 154.15 168.75 152.25 C 162.81 150.64 156.56 148.36 152.00 154.30 Z" fill="#eda951" fill-opacity="0.5" fill-rule="nonzero" group-id="1,4" node-id="77" stroke="none" target-height="46.42" target-width="48.022507" target-x="138.69" target-y="148.36"></path></g><g node-id="113"><path d="M 210.10 137.56 C 208.10 144.40 204.51 151.36 206.72 158.47 C 207.72 161.62 209.77 164.31 211.17 167.29 C 212.94 171.06 211.74 175.05 213.47 178.70 C 215.46 182.54 219.19 185.17 223.47 185.77 C 229.78 186.56 236.11 182.83 239.53 177.48 C 242.95 172.13 243.79 165.48 243.07 159.11 C 242.19 151.37 239.17 144.06 236.17 136.86 C 234.85 133.24 233.05 129.80 230.83 126.65 C 228.48 123.60 225.14 121.12 221.31 120.65 C 218.41 120.29 213.36 121.48 211.82 124.32 C 210.41 126.95 211.51 131.49 210.82 134.61 C 210.65 135.58 210.39 136.57 210.10 137.56 Z" fill="#eda951" fill-opacity="0.5" fill-rule="nonzero" group-id="1,5" node-id="82" stroke="none" target-height="66.270004" target-width="39.279984" target-x="204.51001" target-y="120.28999"></path></g><path d="M 205.00 296.11 C 163.10 296.06 126.46 267.86 115.68 227.37 C 104.89 186.88 122.66 144.20 158.99 123.32 C 195.33 102.44 241.15 108.57 270.71 138.27 C 300.27 167.98 306.18 213.83 285.13 250.06 L 284.91 249.93 L 285.13 250.06 C 272.84 271.33 252.55 286.79 228.79 293.00 C 221.03 295.06 213.03 296.10 205.00 296.11 Z M 205.30 111.51 C 197.30 111.52 189.33 112.56 181.60 114.62 C 135.09 127.07 106.22 173.48 115.60 220.70 C 124.98 267.93 169.39 299.78 217.13 293.51 C 264.87 287.25 299.56 245.02 296.44 196.97 C 293.31 148.93 253.45 111.54 205.30 111.51 Z" fill="#ffffff" fill-rule="nonzero" group-id="1" node-id="85" stroke="none" target-height="197.3393" target-width="201.28876" target-x="104.89441" target-y="102.43836"></path><path d="M 122.12 164.15 C 116.48 162.86 92.91 156.57 95.40 168.89 C 96.73 175.45 137.27 195.97 190.88 209.89 C 259.36 227.62 315.39 229.27 321.88 221.72 C 324.62 218.54 321.71 214.72 319.09 212.56 C 315.22 209.36 310.64 207.37 306.09 205.36 C 305.14 204.94 296.97 201.92 296.97 201.78 L 296.16 189.37 C 296.16 189.49 359.41 203.60 347.16 232.48 C 334.32 262.70 240.73 242.07 209.37 236.69 C 186.70 232.80 162.14 225.77 140.37 218.46 C 121.18 212.03 53.68 183.27 70.71 158.91 C 79.00 147.00 118.44 152.13 127.00 155.00 Z" fill="url(#未命名的渐变_88)" fill-rule="nonzero" group-id="1" node-id="87" stroke="none" target-height="115.70001" target-width="305.73" target-x="53.68" target-y="147"></path><path d="M 122.26 164.00 C 118.89 163.22 115.52 162.42 112.10 161.89 C 108.32 161.30 104.28 160.83 100.49 161.62 C 97.60 162.23 95.02 163.90 94.98 167.14 C 94.98 169.33 95.90 170.63 97.46 172.05 C 99.70 173.99 102.13 175.70 104.70 177.18 C 108.58 179.53 112.62 181.63 116.70 183.62 C 128.09 189.08 139.77 193.90 151.70 198.04 C 182.53 208.84 214.31 216.71 246.61 221.56 C 259.31 223.56 272.09 225.03 284.93 225.72 C 293.75 226.20 302.75 226.45 311.54 225.31 C 315.31 224.81 323.88 223.90 323.28 218.31 C 322.95 215.25 320.15 212.89 317.83 211.21 C 314.64 209.05 311.24 207.23 307.68 205.78 C 305.97 205.02 304.23 204.36 302.48 203.70 L 299.16 202.43 C 298.77 202.27 297.61 202.04 297.33 201.68 C 297.05 201.32 297.15 199.58 297.11 198.98 L 296.90 195.74 L 296.48 189.26 L 296.02 189.43 C 296.42 189.79 297.56 189.85 298.02 189.98 C 299.88 190.47 301.73 190.99 303.57 191.53 C 309.45 193.26 315.23 195.34 320.86 197.77 C 327.35 200.43 333.43 203.98 338.93 208.33 C 343.50 212.13 347.66 217.12 348.40 223.22 C 349.00 229.05 346.77 234.82 342.40 238.73 C 337.76 242.92 331.49 245.00 325.49 246.29 C 317.70 247.82 309.77 248.52 301.84 248.38 C 292.82 248.32 283.81 247.80 274.84 246.83 C 257.84 245.08 241.02 242.23 224.23 239.17 C 216.72 237.79 209.17 236.54 201.68 235.05 C 187.68 232.28 173.89 228.65 160.24 224.56 C 150.95 221.77 141.64 218.92 132.60 215.39 C 125.55 212.64 118.60 209.57 111.81 206.23 C 104.03 202.48 96.52 198.20 89.34 193.40 C 83.13 189.18 76.92 184.40 72.47 178.24 C 69.15 173.66 66.96 167.93 69.06 162.35 C 70.11 159.43 72.19 156.98 74.90 155.47 C 78.37 153.71 82.13 152.62 86.00 152.23 C 94.59 151.03 103.44 151.44 112.00 152.41 C 115.59 152.82 119.16 153.34 122.69 154.08 C 123.87 154.33 125.02 154.71 126.20 154.95 C 126.77 155.07 126.67 154.87 126.58 155.27 C 126.37 155.83 126.09 156.36 125.75 156.85 L 121.88 164.14 C 121.76 164.36 122.25 164.32 122.33 164.14 L 127.20 155.00 C 127.20 154.92 127.20 154.87 127.12 154.84 C 121.12 152.84 114.54 152.24 108.31 151.71 C 99.99 150.99 91.31 150.78 83.12 152.39 C 77.01 153.59 71.12 156.00 68.66 162.16 C 66.66 167.37 68.28 172.81 71.25 177.30 C 75.25 183.30 80.97 187.97 86.74 192.09 C 93.74 196.97 101.09 201.31 108.74 205.09 C 115.71 208.62 122.83 211.84 130.10 214.76 C 137.81 217.85 145.71 220.40 153.64 222.87 C 167.22 227.14 181.00 231.00 195.00 234.00 C 203.44 235.84 212.00 237.25 220.45 238.81 C 236.61 241.81 252.81 244.62 269.14 246.53 C 285.94 248.53 303.34 249.94 320.14 247.53 C 331.00 245.97 344.44 242.22 348.14 230.53 C 352.25 217.53 340.54 207.84 330.51 202.16 C 320.48 196.48 309.51 192.68 298.51 189.79 L 296.97 189.39 C 296.84 189.39 296.35 189.19 296.44 189.27 C 296.31 189.16 295.96 189.27 295.97 189.43 L 296.37 195.64 L 296.56 198.64 L 296.67 200.26 C 296.62 200.81 296.66 201.37 296.79 201.91 C 296.95 202.14 297.52 202.26 297.79 202.35 C 298.63 202.69 299.48 203.01 300.32 203.35 C 305.26 205.08 310.04 207.22 314.63 209.73 C 317.63 211.46 321.09 213.73 322.42 217.05 C 323.29 218.99 322.65 221.27 320.90 222.48 C 319.06 223.57 317.02 224.28 314.90 224.58 C 307.35 226.08 299.43 226.01 291.78 225.80 C 280.01 225.41 268.27 224.41 256.61 222.80 C 225.70 218.71 195.21 211.89 165.50 202.43 C 152.54 198.33 139.80 193.58 127.32 188.18 C 118.95 184.53 110.54 180.63 102.88 175.63 C 100.68 174.33 98.66 172.74 96.88 170.91 C 95.25 169.14 95.01 166.51 96.28 164.47 C 98.28 161.47 103.15 161.56 106.28 161.71 C 110.27 161.97 114.23 162.58 118.12 163.52 C 119.41 163.80 120.69 164.12 121.98 164.42 C 122.14 164.34 122.54 164.08 122.26 164.00 Z" fill="#ffffff" fill-rule="nonzero" group-id="1" node-id="89" stroke="none" target-height="99.16" target-width="285.59003" target-x="66.66" target-y="150.78"></path><path d="M 77.37 159.21 C 75.04 160.67 74.27 163.45 74.37 166.06 C 74.65 169.17 75.71 172.16 77.45 174.75 C 79.33 177.63 81.54 180.28 84.05 182.64 C 86.56 185.12 89.25 187.40 92.11 189.46 C 95.32 191.78 98.77 193.75 102.40 195.34 C 102.62 195.44 102.96 195.12 102.68 195.00 C 96.53 192.24 90.89 188.47 86.00 183.84 C 81.34 179.52 76.43 174.30 75.12 167.84 C 74.53 164.96 74.84 161.21 77.58 159.50 C 77.86 159.33 77.58 159.04 77.36 159.19 Z" fill="#ffffff" fill-rule="nonzero" group-id="1" node-id="91" stroke="none" target-height="36.40001" target-width="28.689995" target-x="74.27" target-y="159.04"></path><path d="M 100.00 179.29 C 111.90 186.40 124.29 192.66 137.08 198.00 C 140.74 199.53 144.43 200.99 148.16 202.36 C 148.29 202.36 148.72 202.21 148.55 202.14 C 135.55 197.34 122.90 191.61 110.72 185.00 C 107.24 183.11 103.80 181.15 100.40 179.13 C 100.27 179.05 99.85 179.24 99.95 179.30 Z" fill="#ffffff" fill-rule="nonzero" group-id="1" node-id="93" stroke="none" target-height="23.309982" target-width="48.87001" target-x="99.84999" target-y="179.05"></path><path d="M 117.06 197.26 C 129.89 204.16 143.17 210.17 156.81 215.26 C 160.69 216.71 164.60 218.08 168.55 219.39 C 168.68 219.39 169.12 219.22 168.93 219.16 C 155.10 214.60 141.60 209.09 128.52 202.69 C 124.79 200.90 121.10 199.00 117.45 197.00 C 117.32 196.93 116.88 197.12 117.06 197.22 Z" fill="#ffffff" fill-rule="nonzero" group-id="1" node-id="95" stroke="none" target-height="22.460007" target-width="52.239998" target-x="116.88" target-y="196.93"></path><path d="M 180.70 213.06 C 191.68 217.01 202.84 220.41 214.18 223.26 C 225.52 226.11 236.96 228.39 248.50 230.08 C 254.93 231.03 261.38 231.80 267.87 232.40 C 268.07 232.40 268.38 232.13 268.05 232.10 C 256.41 231.03 244.82 229.39 233.35 227.17 C 221.88 224.95 210.70 222.17 199.59 218.89 C 193.34 217.03 187.14 214.99 180.99 212.78 C 180.82 212.71 180.43 212.96 180.70 213.06 Z" fill="#ffffff" fill-rule="nonzero" group-id="1" node-id="97" stroke="none" target-height="19.689987" target-width="87.95001" target-x="180.43" target-y="212.71"></path><path d="M 306.29 197.15 C 318.29 201.15 331.81 206.05 337.51 218.42 C 338.98 221.51 339.66 224.91 339.51 228.33 C 339.51 228.55 339.98 228.46 339.99 228.28 C 340.35 222.13 337.68 216.28 333.71 211.69 C 329.34 206.69 323.44 203.31 317.35 200.78 C 313.83 199.31 310.21 198.09 306.60 196.87 C 306.42 196.81 306.03 197.06 306.31 197.15 Z" fill="#ffffff" fill-rule="nonzero" group-id="1" node-id="99" stroke="none" target-height="31.740005" target-width="34.320007" target-x="306.03" target-y="196.81"></path><path d="M 289.28 232.11 C 294.52 233.44 299.93 234.02 305.33 233.82 C 310.36 233.69 315.35 232.84 320.14 231.30 C 323.77 230.08 327.67 228.07 329.39 224.45 C 331.33 220.38 329.61 215.76 326.86 212.51 C 323.22 208.22 317.72 206.13 313.09 203.14 C 312.98 203.07 312.57 203.27 312.63 203.30 C 316.63 205.86 321.04 207.73 324.63 210.86 C 327.75 213.59 330.29 217.81 329.63 222.10 C 328.97 226.39 325.38 229.02 321.69 230.55 C 317.01 232.33 312.08 233.35 307.08 233.55 C 301.22 233.91 295.33 233.36 289.64 231.92 C 289.53 231.92 289.12 232.06 289.25 232.10 Z" fill="#ffffff" fill-rule="nonzero" group-id="1" node-id="101" stroke="none" target-height="30.948303" target-width="42.20999" target-x="289.12" target-y="203.07"></path><path d="M 92.40 173.82 C 90.39 172.34 88.69 170.47 87.40 168.33 C 86.08 166.21 84.95 163.52 85.57 160.99 C 86.45 157.36 90.41 156.48 93.57 155.88 C 97.49 155.17 101.49 154.98 105.47 155.30 C 110.00 155.68 114.48 156.53 118.84 157.83 C 118.99 157.83 119.41 157.65 119.14 157.58 C 111.14 155.25 102.55 154.09 94.22 155.53 C 91.14 156.06 87.22 156.70 85.58 159.72 C 84.30 162.08 85.02 164.90 86.16 167.15 C 87.53 169.87 89.53 172.22 92.00 174.00 C 92.14 174.09 92.58 173.90 92.45 173.82 Z" fill="#ffffff" fill-rule="nonzero" group-id="1" node-id="103" stroke="none" target-height="20" target-width="35.11" target-x="84.3" target-y="154.09"></path><path d="M 163.38 211.61 C 175.07 217.35 187.26 221.99 199.81 225.46 C 203.37 226.44 206.95 227.32 210.55 228.11 C 210.66 228.11 211.08 227.95 210.94 227.92 C 198.21 225.12 185.77 221.13 173.78 216.00 C 170.45 214.57 167.13 213.05 163.84 211.43 C 163.71 211.37 163.32 211.57 163.38 211.60 Z" fill="#ffffff" fill-rule="nonzero" group-id="1" node-id="105" stroke="none" target-height="16.740005" target-width="47.759995" target-x="163.32" target-y="211.37001"></path><path d="M 243.30 236.92 C 255.19 239.37 267.16 241.52 279.19 243.16 C 290.63 244.71 302.38 245.59 313.81 243.42 C 316.82 242.88 319.78 242.08 322.65 241.01 C 325.23 240.09 327.57 238.60 329.48 236.64 C 329.68 236.43 329.21 236.40 329.09 236.54 C 325.51 240.40 319.97 241.84 314.99 242.89 C 309.34 244.03 303.58 244.53 297.82 244.40 C 286.25 244.24 274.73 242.30 263.35 240.40 C 256.74 239.27 250.15 238.02 243.59 236.67 C 243.41 236.67 243.02 236.90 243.30 236.96 Z" fill="#ffffff" fill-rule="nonzero" group-id="1" node-id="107" stroke="none" target-height="9.190018" target-width="86.65999" target-x="243.02" target-y="236.39998"></path></g></svg>